<?xml version="1.0" standalone="no"?>
<!DOCTYPE svg PUBLIC "-//W3C//DTD SVG 20010904//EN"
 "http://www.w3.org/TR/2001/REC-SVG-20010904/DTD/svg10.dtd">
<svg version="1.0" xmlns="http://www.w3.org/2000/svg"
 width="2362.000000pt" height="2362.000000pt" viewBox="0 0 2362.000000 2362.000000"
 preserveAspectRatio="xMidYMid meet">
<metadata>
Created by potrace 1.11, written by Peter Selinger 2001-2013
</metadata>
<g transform="translate(0.000000,2362.000000) scale(0.100000,-0.100000)"
fill="#000000" stroke="none">
<path d="M4299 18060 c-1 -33 -1 -12488 0 -12518 l1 -23 2748 4 c1511 2 2772
7 2802 10 30 3 91 8 135 11 119 9 276 25 395 41 19 3 55 7 80 10 25 3 56 8 70
11 14 2 39 6 55 8 32 5 40 6 175 30 124 22 134 24 265 52 645 139 1218 397
1685 758 134 103 381 349 494 491 75 95 256 354 256 368 0 3 16 31 36 63 117
194 251 552 299 799 17 89 44 247 50 295 4 30 9 66 10 80 26 196 26 759 0 977
-12 102 -17 138 -40 298 -3 22 -15 83 -26 135 -11 52 -22 102 -24 110 -19 92
-94 341 -124 415 -177 434 -337 696 -576 944 -204 212 -467 394 -738 512 -40
17 -90 39 -112 49 -172 75 -577 183 -805 215 -25 3 -54 8 -65 10 -11 2 -23 4
-27 4 -5 1 -8 7 -8 14 0 7 30 30 68 49 481 258 826 608 1015 1032 27 61 55
125 63 143 35 78 108 312 140 448 8 33 16 69 19 80 2 10 7 35 10 55 5 34 7 46
19 110 7 33 10 60 32 235 25 210 25 657 -2 920 -15 152 -24 222 -34 280 -5 28
-12 64 -15 80 -4 28 -21 116 -31 160 -2 11 -6 31 -9 44 -2 13 -12 49 -21 80
-9 31 -18 63 -19 71 -8 37 -85 252 -115 320 -79 182 -177 361 -274 500 -160
228 -409 472 -631 616 -33 21 -62 41 -65 45 -11 12 -221 128 -315 173 -325
157 -764 282 -1195 341 -25 3 -56 8 -70 10 -14 2 -52 7 -85 11 -33 3 -68 8
-77 9 -9 2 -59 7 -110 10 -51 4 -104 8 -117 10 -86 14 -695 18 -2803 19
l-2388 1 -1 -25z m3766 -2485 c127 -3 250 -8 275 -10 25 -2 83 -6 130 -10 101
-7 225 -28 335 -56 438 -115 738 -375 839 -730 13 -47 27 -108 31 -135 3 -27
8 -60 10 -74 2 -14 5 -92 5 -175 2 -135 -2 -197 -16 -275 -2 -14 -7 -41 -10
-60 -10 -60 -60 -202 -95 -265 -113 -208 -304 -374 -539 -469 -25 -10 -54 -22
-65 -27 -78 -33 -324 -88 -455 -103 -217 -25 -327 -30 -635 -31 l-310 0 -1
1212 c-1 1081 1 1212 15 1215 19 4 196 1 486 -7z m985 -4868 c19 -3 79 -10
134 -17 54 -6 108 -14 120 -16 11 -2 46 -8 76 -14 66 -12 73 -14 176 -39 394
-97 719 -315 872 -586 37 -65 86 -186 96 -238 3 -12 12 -53 20 -92 28 -126 38
-362 23 -535 -15 -175 -89 -386 -181 -513 -138 -193 -400 -372 -681 -465 -129
-43 -361 -97 -500 -116 -139 -20 -182 -24 -292 -31 -191 -12 -264 -14 -804
-21 l-546 -6 0 1350 0 1350 726 -3 c399 -2 742 -6 761 -8z"/>
<path d="M17228 13715 c-2 -1 -32 -5 -68 -8 -132 -12 -361 -63 -422 -94 -16
-7 -28 -11 -28 -9 0 7 -140 -54 -247 -108 -89 -44 -247 -145 -307 -196 -104
-88 -137 -119 -189 -173 -73 -77 -150 -171 -212 -261 -104 -152 -234 -440
-270 -601 -45 -206 -58 -311 -58 -490 -1 -119 8 -279 16 -292 3 -4 8 -30 11
-58 11 -99 75 -317 128 -434 54 -122 62 -136 121 -236 177 -297 437 -535 777
-714 164 -85 380 -165 501 -185 19 -3 57 -10 84 -15 65 -12 209 -24 310 -24
80 0 247 11 275 18 8 2 35 7 60 10 121 17 353 93 490 160 411 201 711 483 903
848 94 179 162 381 196 582 33 191 33 487 1 660 -5 28 -11 61 -14 75 -32 190
-157 492 -281 680 -264 398 -673 689 -1130 805 -55 14 -111 27 -125 29 -14 3
-45 8 -70 11 -25 4 -54 9 -65 12 -23 5 -382 13 -387 8z"/>
</g>
</svg>
